<svg data-name="Layer 1" xmlns="http://www.w3.org/2000/svg" viewBox="0 0 100 100"><defs><style>.cls-1{fill:#faf4b6;}</style></defs><title>_</title><path class="cls-1" d="M94.93,63.44c1.69-3.33,2.25-7.84.73-11.3-2.69-6.11-3-12.22-3-18.78,0-12-5.79-19.65-15.37-20.53a17.71,17.71,0,0,0-10.74,2,14,14,0,0,0-2.25,1.61A12.87,12.87,0,0,0,63,17.81c-.49-.24-1-.47-1.49-.68l-.13-.05a29.38,29.38,0,0,0-13.1-2.23,29.73,29.73,0,0,0-6.42,1.08C41.65,16,37,17.79,37,17.81a12.87,12.87,0,0,0-1.29-1.33,14,14,0,0,0-2.25-1.61,17.71,17.71,0,0,0-10.74-2c-9.58.88-15.32,8.56-15.37,20.53,0,3.61.38,6.92-.48,10.49s-2.36,7.24-3,11a14.77,14.77,0,0,0,.63,7.83,11.72,11.72,0,0,0,6.62,6.37,12.57,12.57,0,0,0,7.75.38c1.85-.49,1.65-.52,2.57,1.13a17.41,17.41,0,0,0,2,2.9A16.6,16.6,0,0,0,36,79.13,16.46,16.46,0,0,0,59.37,84a17.07,17.07,0,0,0,3.53-3.23c1.25-1.51,1.32-1.57,3.25-1.82a16.66,16.66,0,0,0,11.24-6.66c.53-.72,1-2.33,1.67-2.85,1-.78,2,0,3.33.23A11.68,11.68,0,0,0,94.7,63.88Z"></path><circle cx="40.21" cy="41.6" r="2.26"></circle><circle cx="59.79" cy="41.6" r="2.26"></circle><path d="M58,57.47a24.79,24.79,0,0,0-15.45,0,1.4,1.4,0,0,0-.41,2.41l7.27,5.79a1.4,1.4,0,0,0,1.74,0l7.27-5.79A1.4,1.4,0,0,0,58,57.47ZM51.4,59.07c-.38,0-.76,0-1.15,0h0C50.64,59,51,59,51.4,59.07Zm-3.4.09c-.71.08-1.37.18-2,.3l2.1,1.67L46,59.45C46.63,59.34,47.29,59.23,48,59.16Zm2.25,3.64h0l4.2-3.35Z"></path><path d="M96.11,52.3c-3-6.77-3-9.84-3-19,0-12.09-5.85-19.84-15.52-20.73-6.69-.62-10.83,1.66-13.12,3.68a13,13,0,0,0-1.31,1.35,29.28,29.28,0,0,0-5.41-2.05,29.74,29.74,0,0,0-20.88,2.05,13,13,0,0,0-1.31-1.35c-2.29-2-6.42-4.29-13.12-3.68C12.76,13.49,7,21.24,6.91,33.33c0,6.42,0,10-1.12,13.83a1.4,1.4,0,0,0,2.69.75C9.67,43.68,9.68,40,9.7,33.34c0-5,1.32-16.89,13-18,5.69-.53,9.14,1.34,11,3a8.59,8.59,0,0,1,3.08,5.75,8.8,8.8,0,0,1-2,1,16.38,16.38,0,0,0-5.09,3.06c-4.23,4.05-5.11,15.49-4.14,24.4.52,4.82-.4,8.77-2.67,11.41a10.28,10.28,0,0,1-7.6,3.4,8.09,8.09,0,0,1-6.85-2.91A12.09,12.09,0,0,1,6,54.82a1.4,1.4,0,1,0-2.73-.58,14.84,14.84,0,0,0,3,12.08,10.82,10.82,0,0,0,8.52,3.91h.58a14.49,14.49,0,0,0,5.53-1.3A16.62,16.62,0,0,0,35.8,79.53a16.63,16.63,0,0,0,28.39,0h0a16.63,16.63,0,0,0,15.44-10.4,14.71,14.71,0,0,0,5,1.06h.56a11,11,0,0,0,9.32-4.93C97.07,61.5,97.76,56,96.11,52.3ZM50,84.71a13.76,13.76,0,0,1-10.94-5.36,16.81,16.81,0,0,0,11.27-7.21,16.79,16.79,0,0,0,3.8,4A16.46,16.46,0,0,0,61,79.25,13.84,13.84,0,0,1,50,84.71ZM64.2,76.76c-.23,0-.47,0-.72,0A13.72,13.72,0,0,1,55.82,74a14,14,0,0,1-4.22-5.23l0-.06-.08-.13-.08-.1-.1-.1-.1-.09-.11-.08L51,68.09,50.86,68l-.13,0-.13,0-.13,0H50.2l-.14,0-.13,0-.14,0-.06,0-.06,0-.12.07-.11.08-.1.09-.1.11-.07.1-.08.13,0,.06a14,14,0,0,1-12.47,8h-.12a13.88,13.88,0,0,1-13.12-9.35A12,12,0,0,0,25,65.84c2.79-3.24,3.94-7.92,3.33-13.53-1.06-9.77.36-19.26,3.3-22.08a13.91,13.91,0,0,1,4.27-2.52c1.84-.8,3.74-1.62,3.67-3.61A9.88,9.88,0,0,0,38.44,20,27,27,0,0,1,57,18.27a26.46,26.46,0,0,1,4.55,1.68,9.88,9.88,0,0,0-1.14,4.15c-.07,2,1.83,2.82,3.67,3.61a13.9,13.9,0,0,1,4.27,2.52c2.94,2.82,4.36,12.31,3.3,22.08-.61,5.61.54,10.29,3.33,13.53a12,12,0,0,0,2.17,2A13.84,13.84,0,0,1,64.2,76.76Zm28-13a8.23,8.23,0,0,1-7.45,3.71,10.28,10.28,0,0,1-7.6-3.4c-2.27-2.64-3.19-6.59-2.67-11.41,1-8.91.08-20.35-4.14-24.4a16.37,16.37,0,0,0-5.09-3.06,8.8,8.8,0,0,1-2-1,8.59,8.59,0,0,1,3.08-5.75c1.88-1.65,5.32-3.51,11-3,11.66,1.07,13,12.92,13,18,0,9.31,0,12.79,3.26,20.09C94.63,55.86,94.51,60.29,92.16,63.72Z"></path></svg>